<?xml version="1.0" encoding="UTF-8" standalone="no"?>
<!-- Created with Inkscape (http://www.inkscape.org/) -->
<svg
   xmlns:dc="http://purl.org/dc/elements/1.1/"
   xmlns:cc="http://creativecommons.org/ns#"
   xmlns:rdf="http://www.w3.org/1999/02/22-rdf-syntax-ns#"
   xmlns:svg="http://www.w3.org/2000/svg"
   xmlns="http://www.w3.org/2000/svg"
   xmlns:sodipodi="http://sodipodi.sourceforge.net/DTD/sodipodi-0.dtd"
   xmlns:inkscape="http://www.inkscape.org/namespaces/inkscape"
   id="svg2"
   sodipodi:version="0.32"
   inkscape:version="0.46"
   width="50"
   height="50"
   version="1.0"
   sodipodi:docname="gray.svg"
   inkscape:export-filename="/home/qubodup/sf_games/blockattack-1.3.2/Game/gfx/garbage/garbageGMR.png"
   inkscape:export-xdpi="90"
   inkscape:export-ydpi="90"
   inkscape:output_extension="org.inkscape.output.svg.inkscape">
  <metadata
     id="metadata7">
    <rdf:RDF>
      <cc:Work
         rdf:about="">
        <dc:format>image/svg+xml</dc:format>
        <dc:type
           rdf:resource="http://purl.org/dc/dcmitype/StillImage" />
      </cc:Work>
    </rdf:RDF>
  </metadata>
  <defs
     id="defs5">
    <inkscape:perspective
       sodipodi:type="inkscape:persp3d"
       inkscape:vp_x="0 : 526.18109 : 1"
       inkscape:vp_y="0 : 1000 : 0"
       inkscape:vp_z="744.09448 : 526.18109 : 1"
       inkscape:persp3d-origin="372.04724 : 350.78739 : 1"
       id="perspective9" />
    <inkscape:perspective
       id="perspective3189"
       inkscape:persp3d-origin="372.04724 : 350.78739 : 1"
       inkscape:vp_z="744.09448 : 526.18109 : 1"
       inkscape:vp_y="0 : 1000 : 0"
       inkscape:vp_x="0 : 526.18109 : 1"
       sodipodi:type="inkscape:persp3d" />
    <inkscape:perspective
       id="perspective2390"
       inkscape:persp3d-origin="372.04724 : 350.78739 : 1"
       inkscape:vp_z="744.09448 : 526.18109 : 1"
       inkscape:vp_y="0 : 1000 : 0"
       inkscape:vp_x="0 : 526.18109 : 1"
       sodipodi:type="inkscape:persp3d" />
  </defs>
  <sodipodi:namedview
     inkscape:window-height="1179"
     inkscape:window-width="1105"
     inkscape:pageshadow="2"
     inkscape:pageopacity="0.0"
     guidetolerance="10.0"
     gridtolerance="10.0"
     objecttolerance="10.0"
     borderopacity="1.0"
     bordercolor="#666666"
     pagecolor="#ffffff"
     id="base"
     showgrid="false"
     inkscape:showpageshadow="false"
     showborder="false"
     inkscape:zoom="8"
     inkscape:cx="18.352601"
     inkscape:cy="26.693704"
     inkscape:window-x="813"
     inkscape:window-y="19"
     inkscape:current-layer="svg2">
    <inkscape:grid
       type="xygrid"
       id="grid2384"
       visible="true"
       enabled="true"
       spacingx="1px"
       spacingy="1px" />
  </sodipodi:namedview>
  <rect
     style="opacity:1;fill:#222222;fill-opacity:1;stroke:none;stroke-width:16;stroke-linecap:butt;stroke-linejoin:miter;stroke-miterlimit:4;stroke-dasharray:16, 16;stroke-dashoffset:0;stroke-opacity:1"
     id="rect2386"
     width="50"
     height="50"
     x="0"
     y="0"
     rx="4"
     ry="4" />
  <rect
     ry="4"
     rx="4"
     y="2"
     x="2"
     height="46"
     width="46"
     id="rect3160"
     style="opacity:1;fill:#414141;fill-opacity:1;stroke:none;stroke-width:16;stroke-linecap:butt;stroke-linejoin:miter;stroke-miterlimit:4;stroke-dasharray:16, 16;stroke-dashoffset:0;stroke-opacity:1" />
  <g
     transform="translate(55,0)"
     id="g2417">
    <rect
       y="0"
       x="-20"
       height="50"
       width="15"
       id="rect2419"
       style="opacity:1;fill:#222222;fill-opacity:1;stroke:none;stroke-width:16;stroke-linecap:butt;stroke-linejoin:miter;stroke-miterlimit:4;stroke-dasharray:16, 16;stroke-dashoffset:0;stroke-opacity:1" />
    <rect
       style="opacity:1;fill:#414141;fill-opacity:1;stroke:none;stroke-width:16;stroke-linecap:butt;stroke-linejoin:miter;stroke-miterlimit:4;stroke-dasharray:16, 16;stroke-dashoffset:0;stroke-opacity:1"
       id="rect2421"
       width="15"
       height="46"
       x="-20"
       y="2" />
    <rect
       y="10"
       x="-20"
       height="30"
       width="15"
       id="rect2423"
       style="opacity:1;fill:#575454;fill-opacity:1;stroke:none;stroke-width:16;stroke-linecap:butt;stroke-linejoin:miter;stroke-miterlimit:4;stroke-dasharray:16, 16;stroke-dashoffset:0;stroke-opacity:1" />
  </g>
  <g
     id="g3210"
     transform="translate(20,0)">
    <rect
       style="opacity:1;fill:#222222;fill-opacity:1;stroke:none;stroke-width:16;stroke-linecap:butt;stroke-linejoin:miter;stroke-miterlimit:4;stroke-dasharray:16, 16;stroke-dashoffset:0;stroke-opacity:1"
       id="rect3204"
       width="15"
       height="50"
       x="-20"
       y="0" />
    <rect
       y="2"
       x="-20"
       height="46"
       width="15"
       id="rect3206"
       style="opacity:1;fill:#414141;fill-opacity:1;stroke:none;stroke-width:16;stroke-linecap:butt;stroke-linejoin:miter;stroke-miterlimit:4;stroke-dasharray:16, 16;stroke-dashoffset:0;stroke-opacity:1" />
    <rect
       style="opacity:1;fill:#575454;fill-opacity:1;stroke:none;stroke-width:16;stroke-linecap:butt;stroke-linejoin:miter;stroke-miterlimit:4;stroke-dasharray:16, 16;stroke-dashoffset:0;stroke-opacity:1"
       id="rect3208"
       width="15"
       height="30"
       x="-20"
       y="10" />
  </g>
  <rect
     style="opacity:1;fill:#575454;fill-opacity:1;stroke:none;stroke-width:16;stroke-linecap:butt;stroke-linejoin:miter;stroke-miterlimit:4;stroke-dasharray:16, 16;stroke-dashoffset:0;stroke-opacity:1"
     id="rect3195"
     width="30"
     height="30"
     x="10"
     y="10"
     rx="4"
     ry="4" />
  <path
     style="opacity:1;fill:#7e7e7e;fill-opacity:1;stroke:none;stroke-width:16;stroke-linecap:butt;stroke-linejoin:miter;stroke-miterlimit:4;stroke-dasharray:16, 16;stroke-dashoffset:0;stroke-opacity:1"
     d="M 10,10 L 3,17 L 5,19 L 12,12 L 10,10 z"
     id="path3166" />
  <path
     id="path3168"
     d="M 14,16 L 4,26 L 6,28 L 16,18 L 14,16 z"
     style="opacity:1;fill:#7e7e7e;fill-opacity:1;stroke:none;stroke-width:16;stroke-linecap:butt;stroke-linejoin:miter;stroke-miterlimit:4;stroke-dasharray:16, 16;stroke-dashoffset:0;stroke-opacity:1"
     sodipodi:nodetypes="ccccc" />
  <path
     id="path3170"
     d="M 2,28 L -3,33 L -1,35 L 4,30 L 2,28 z"
     style="opacity:1;fill:#7e7e7e;fill-opacity:1;stroke:none;stroke-width:16;stroke-linecap:butt;stroke-linejoin:miter;stroke-miterlimit:4;stroke-dasharray:16, 16;stroke-dashoffset:0;stroke-opacity:1"
     sodipodi:nodetypes="ccccc" />
  <path
     sodipodi:nodetypes="ccccc"
     style="opacity:1;fill:#7e7e7e;fill-opacity:1;stroke:none;stroke-width:16;stroke-linecap:butt;stroke-linejoin:miter;stroke-miterlimit:4;stroke-dasharray:16, 16;stroke-dashoffset:0;stroke-opacity:1"
     d="M 20,10 L 16,14 L 18,16 L 22,12 L 20,10 z"
     id="path3172" />
  <path
     id="path3174"
     d="M 1,19 L -3,23 L -1,25 L 3,21 L 1,19 z"
     style="opacity:1;fill:#7e7e7e;fill-opacity:1;stroke:none;stroke-width:16;stroke-linecap:butt;stroke-linejoin:miter;stroke-miterlimit:4;stroke-dasharray:16, 16;stroke-dashoffset:0;stroke-opacity:1"
     sodipodi:nodetypes="ccccc" />
  <path
     sodipodi:nodetypes="ccccc"
     style="opacity:1;fill:#7e7e7e;fill-opacity:1;stroke:none;stroke-width:16;stroke-linecap:butt;stroke-linejoin:miter;stroke-miterlimit:4;stroke-dasharray:16, 16;stroke-dashoffset:0;stroke-opacity:1"
     d="M 51,19 L 47,23 L 49,25 L 53,21 L 51,19 z"
     id="path3182" />
  <path
     sodipodi:nodetypes="ccccc"
     style="opacity:1;fill:#7e7e7e;fill-opacity:1;stroke:none;stroke-width:16;stroke-linecap:butt;stroke-linejoin:miter;stroke-miterlimit:4;stroke-dasharray:16, 16;stroke-dashoffset:0;stroke-opacity:1"
     d="M 45,25 L 38,32 L 40,34 L 47,27 L 45,25 z"
     id="path3184" />
  <path
     id="path3186"
     d="M 50,10 L 46,14 L 48,16 L 52,12 L 50,10 z"
     style="opacity:1;fill:#7e7e7e;fill-opacity:1;stroke:none;stroke-width:16;stroke-linecap:butt;stroke-linejoin:miter;stroke-miterlimit:4;stroke-dasharray:16, 16;stroke-dashoffset:0;stroke-opacity:1"
     sodipodi:nodetypes="ccccc" />
  <path
     id="path3188"
     d="M 44,16 L 41,19 L 43,21 L 46,18 L 44,16 z"
     style="opacity:1;fill:#7e7e7e;fill-opacity:1;stroke:none;stroke-width:16;stroke-linecap:butt;stroke-linejoin:miter;stroke-miterlimit:4;stroke-dasharray:16, 16;stroke-dashoffset:0;stroke-opacity:1"
     sodipodi:nodetypes="ccccc" />
  <path
     style="opacity:1;fill:#7e7e7e;fill-opacity:1;stroke:none;stroke-width:16;stroke-linecap:butt;stroke-linejoin:miter;stroke-miterlimit:4;stroke-dasharray:16, 16;stroke-dashoffset:0;stroke-opacity:1"
     d="M 39,21 L 32,28 L 34,30 L 41,23 L 39,21 z"
     id="path3190" />
  <path
     id="path3192"
     d="M 30,30 L 26,34 L 28,36 L 32,32 L 30,30 z"
     style="opacity:1;fill:#7e7e7e;fill-opacity:1;stroke:none;stroke-width:16;stroke-linecap:butt;stroke-linejoin:miter;stroke-miterlimit:4;stroke-dasharray:16, 16;stroke-dashoffset:0;stroke-opacity:1"
     sodipodi:nodetypes="ccccc" />
  <path
     id="path3196"
     d="M 36,34 L 32,38 L 34,40 L 38,36 L 36,34 z"
     style="opacity:1;fill:#7e7e7e;fill-opacity:1;stroke:none;stroke-width:16;stroke-linecap:butt;stroke-linejoin:miter;stroke-miterlimit:4;stroke-dasharray:16, 16;stroke-dashoffset:0;stroke-opacity:1"
     sodipodi:nodetypes="ccccc" />
  <path
     sodipodi:nodetypes="ccccc"
     style="opacity:1;fill:#7e7e7e;fill-opacity:1;stroke:none;stroke-width:16;stroke-linecap:butt;stroke-linejoin:miter;stroke-miterlimit:4;stroke-dasharray:16, 16;stroke-dashoffset:0;stroke-opacity:1"
     d="M 24,36 L 22,38 L 24,40 L 26,38 L 24,36 z"
     id="path3198" />
  <path
     sodipodi:nodetypes="ccccc"
     style="opacity:1;fill:#7e7e7e;fill-opacity:1;stroke:none;stroke-width:16;stroke-linecap:butt;stroke-linejoin:miter;stroke-miterlimit:4;stroke-dasharray:16, 16;stroke-dashoffset:0;stroke-opacity:1"
     d="M 0,10 L -4,14 L -2,16 L 2,12 L 0,10 z"
     id="path3200" />
  <path
     id="path3271"
     d="M 7,33 L 2,38 L 4,40 L 9,35 L 7,33 z"
     style="opacity:1;fill:#7e7e7e;fill-opacity:1;stroke:none;stroke-width:16;stroke-linecap:butt;stroke-linejoin:miter;stroke-miterlimit:4;stroke-dasharray:16, 16;stroke-dashoffset:0;stroke-opacity:1"
     sodipodi:nodetypes="ccccc" />
  <path
     id="path3269"
     d="M 11,29 L 9,31 L 11,33 L 13,31 L 11,29 z"
     style="opacity:1;fill:#7e7e7e;fill-opacity:1;stroke:none;stroke-width:16;stroke-linecap:butt;stroke-linejoin:miter;stroke-miterlimit:4;stroke-dasharray:16, 16;stroke-dashoffset:0;stroke-opacity:1"
     sodipodi:nodetypes="ccccc" />
  <path
     id="path3273"
     d="M 40,10 L 38,12 L 40,14 L 42,12 L 40,10 z"
     style="opacity:1;fill:#7e7e7e;fill-opacity:1;stroke:none;stroke-width:16;stroke-linecap:butt;stroke-linejoin:miter;stroke-miterlimit:4;stroke-dasharray:16, 16;stroke-dashoffset:0;stroke-opacity:1"
     sodipodi:nodetypes="ccccc" />
  <path
     sodipodi:nodetypes="ccccc"
     style="opacity:1;fill:#7e7e7e;fill-opacity:1;stroke:none;stroke-width:16;stroke-linecap:butt;stroke-linejoin:miter;stroke-miterlimit:4;stroke-dasharray:16, 16;stroke-dashoffset:0;stroke-opacity:1"
     d="M 53,28 L 48,33 L 50,35 L 55,30 L 53,28 z"
     id="path3293" />
  <path
     id="path3295"
     d="M 46,35 L 43,38 L 45,40 L 48,37 L 46,35 z"
     style="opacity:1;fill:#7e7e7e;fill-opacity:1;stroke:none;stroke-width:16;stroke-linecap:butt;stroke-linejoin:miter;stroke-miterlimit:4;stroke-dasharray:16, 16;stroke-dashoffset:0;stroke-opacity:1"
     sodipodi:nodetypes="ccccc" />
  <g
     id="g3259">
    <path
       id="rect3243"
       d="M 35,0 L 35,2 L 44,2 C 46.216,2 48,3.784 48,6 L 48,44 C 48,46.216 46.216,48 44,48 L 35,48 L 35,50 L 46,50 C 48.216,50 50,48.216 50,46 L 50,4 C 50,1.784 48.216,0 46,0 L 35,0 z"
       style="opacity:1;fill:#222222;fill-opacity:1;stroke:none;stroke-width:16;stroke-linecap:butt;stroke-linejoin:miter;stroke-miterlimit:4;stroke-dasharray:16, 16;stroke-dashoffset:0;stroke-opacity:1" />
    <path
       id="rect3245"
       d="M 35,2 L 35,10 L 36,10 C 38.216,10 40,11.784 40,14 L 40,36 C 40,38.216 38.216,40 36,40 L 35,40 L 35,48 L 44,48 C 46.216,48 48,46.216 48,44 L 48,6 C 48,3.784 46.216,2 44,2 L 35,2 z"
       style="opacity:1;fill:#414141;fill-opacity:1;stroke:none;stroke-width:16;stroke-linecap:butt;stroke-linejoin:miter;stroke-miterlimit:4;stroke-dasharray:16, 16;stroke-dashoffset:0;stroke-opacity:1" />
  </g>
  <path
     id="path3263"
     d="M 30,10 L 25,15 L 27,17 L 32,12 L 30,10 z"
     style="opacity:1;fill:#7e7e7e;fill-opacity:1;stroke:none;stroke-width:16;stroke-linecap:butt;stroke-linejoin:miter;stroke-miterlimit:4;stroke-dasharray:16, 16;stroke-dashoffset:0;stroke-opacity:1"
     sodipodi:nodetypes="ccccc" />
  <path
     sodipodi:nodetypes="ccccc"
     style="opacity:1;fill:#7e7e7e;fill-opacity:1;stroke:none;stroke-width:16;stroke-linecap:butt;stroke-linejoin:miter;stroke-miterlimit:4;stroke-dasharray:16, 16;stroke-dashoffset:0;stroke-opacity:1"
     d="M 23,17 L 19,21 L 21,23 L 25,19 L 23,17 z"
     id="path3265" />
  <path
     id="path3267"
     d="M 17,23 L 13,27 L 15,29 L 19,25 L 17,23 z"
     style="opacity:1;fill:#7e7e7e;fill-opacity:1;stroke:none;stroke-width:16;stroke-linecap:butt;stroke-linejoin:miter;stroke-miterlimit:4;stroke-dasharray:16, 16;stroke-dashoffset:0;stroke-opacity:1"
     sodipodi:nodetypes="ccccc" />
  <path
     sodipodi:nodetypes="ccccc"
     style="opacity:1;fill:#7e7e7e;fill-opacity:1;stroke:none;stroke-width:16;stroke-linecap:butt;stroke-linejoin:miter;stroke-miterlimit:4;stroke-dasharray:16, 16;stroke-dashoffset:0;stroke-opacity:1"
     d="M 36,14 L 33,17 L 35,19 L 38,16 L 36,14 z"
     id="path3275" />
  <path
     sodipodi:nodetypes="ccccc"
     style="opacity:1;fill:#7e7e7e;fill-opacity:1;stroke:none;stroke-width:16;stroke-linecap:butt;stroke-linejoin:miter;stroke-miterlimit:4;stroke-dasharray:16, 16;stroke-dashoffset:0;stroke-opacity:1"
     d="M 31,19 L 26,24 L 28,26 L 33,21 L 31,19 z"
     id="path3277" />
  <path
     sodipodi:nodetypes="ccccc"
     style="opacity:1;fill:#7e7e7e;fill-opacity:1;stroke:none;stroke-width:16;stroke-linecap:butt;stroke-linejoin:miter;stroke-miterlimit:4;stroke-dasharray:16, 16;stroke-dashoffset:0;stroke-opacity:1"
     d="M 24,26 L 19,31 L 21,33 L 26,28 L 24,26 z"
     id="path3279" />
  <path
     sodipodi:nodetypes="ccccc"
     style="opacity:1;fill:#7e7e7e;fill-opacity:1;stroke:none;stroke-width:16;stroke-linecap:butt;stroke-linejoin:miter;stroke-miterlimit:4;stroke-dasharray:16, 16;stroke-dashoffset:0;stroke-opacity:1"
     d="M 17,33 L 12,38 L 14,40 L 19,35 L 17,33 z"
     id="path3281" />
</svg>
