<?xml version="1.0" encoding="UTF-8" standalone="no"?>
<!-- Created with Inkscape (http://www.inkscape.org/) -->
<svg
   xmlns:dc="http://purl.org/dc/elements/1.1/"
   xmlns:cc="http://creativecommons.org/ns#"
   xmlns:rdf="http://www.w3.org/1999/02/22-rdf-syntax-ns#"
   xmlns:svg="http://www.w3.org/2000/svg"
   xmlns="http://www.w3.org/2000/svg"
   xmlns:sodipodi="http://sodipodi.sourceforge.net/DTD/sodipodi-0.dtd"
   xmlns:inkscape="http://www.inkscape.org/namespaces/inkscape"
   width="80"
   height="100"
   id="svg2"
   sodipodi:version="0.32"
   inkscape:version="0.46"
   version="1.0"
   sodipodi:docname="sign.svg"
   inkscape:output_extension="org.inkscape.output.svg.inkscape"
   inkscape:export-filename="/home/qubodup/sign_black-80x100.png"
   inkscape:export-xdpi="90"
   inkscape:export-ydpi="90">
  <defs
     id="defs4">
    <inkscape:perspective
       sodipodi:type="inkscape:persp3d"
       inkscape:vp_x="0 : 526.18109 : 1"
       inkscape:vp_y="0 : 1000 : 0"
       inkscape:vp_z="744.09448 : 526.18109 : 1"
       inkscape:persp3d-origin="372.04724 : 350.78739 : 1"
       id="perspective10" />
    <inkscape:perspective
       id="perspective2481"
       inkscape:persp3d-origin="372.04724 : 350.78739 : 1"
       inkscape:vp_z="744.09448 : 526.18109 : 1"
       inkscape:vp_y="0 : 1000 : 0"
       inkscape:vp_x="0 : 526.18109 : 1"
       sodipodi:type="inkscape:persp3d" />
    <inkscape:perspective
       id="perspective2531"
       inkscape:persp3d-origin="372.04724 : 350.78739 : 1"
       inkscape:vp_z="744.09448 : 526.18109 : 1"
       inkscape:vp_y="0 : 1000 : 0"
       inkscape:vp_x="0 : 526.18109 : 1"
       sodipodi:type="inkscape:persp3d" />
    <inkscape:perspective
       id="perspective2581"
       inkscape:persp3d-origin="372.04724 : 350.78739 : 1"
       inkscape:vp_z="744.09448 : 526.18109 : 1"
       inkscape:vp_y="0 : 1000 : 0"
       inkscape:vp_x="0 : 526.18109 : 1"
       sodipodi:type="inkscape:persp3d" />
    <inkscape:perspective
       id="perspective2631"
       inkscape:persp3d-origin="372.04724 : 350.78739 : 1"
       inkscape:vp_z="744.09448 : 526.18109 : 1"
       inkscape:vp_y="0 : 1000 : 0"
       inkscape:vp_x="0 : 526.18109 : 1"
       sodipodi:type="inkscape:persp3d" />
    <inkscape:perspective
       sodipodi:type="inkscape:persp3d"
       inkscape:vp_x="0 : 526.18109 : 1"
       inkscape:vp_y="0 : 1000 : 0"
       inkscape:vp_z="744.09448 : 526.18109 : 1"
       inkscape:persp3d-origin="372.04724 : 350.78739 : 1"
       id="perspective9" />
    <inkscape:perspective
       id="perspective3189"
       inkscape:persp3d-origin="372.04724 : 350.78739 : 1"
       inkscape:vp_z="744.09448 : 526.18109 : 1"
       inkscape:vp_y="0 : 1000 : 0"
       inkscape:vp_x="0 : 526.18109 : 1"
       sodipodi:type="inkscape:persp3d" />
    <inkscape:perspective
       id="perspective2390"
       inkscape:persp3d-origin="372.04724 : 350.78739 : 1"
       inkscape:vp_z="744.09448 : 526.18109 : 1"
       inkscape:vp_y="0 : 1000 : 0"
       inkscape:vp_x="0 : 526.18109 : 1"
       sodipodi:type="inkscape:persp3d" />
    <inkscape:perspective
       id="perspective3031"
       inkscape:persp3d-origin="372.04724 : 350.78739 : 1"
       inkscape:vp_z="744.09448 : 526.18109 : 1"
       inkscape:vp_y="0 : 1000 : 0"
       inkscape:vp_x="0 : 526.18109 : 1"
       sodipodi:type="inkscape:persp3d" />
  </defs>
  <sodipodi:namedview
     id="base"
     pagecolor="#ffffff"
     bordercolor="#666666"
     borderopacity="1.0"
     gridtolerance="10000"
     guidetolerance="10"
     objecttolerance="10"
     inkscape:pageopacity="0.0"
     inkscape:pageshadow="2"
     inkscape:zoom="1"
     inkscape:cx="99.518269"
     inkscape:cy="50.699707"
     inkscape:document-units="px"
     inkscape:current-layer="layer1"
     showgrid="false"
     showguides="true"
     inkscape:guide-bbox="true"
     inkscape:snap-bbox="true"
     inkscape:bbox-paths="true"
     inkscape:snap-nodes="true"
     inkscape:snap-global="true"
     inkscape:window-width="958"
     inkscape:window-height="1179"
     inkscape:window-x="0"
     inkscape:window-y="0">
    <inkscape:grid
       type="xygrid"
       id="grid2639"
       visible="true"
       enabled="true"
       spacingx="2px"
       spacingy="2px"
       empspacing="10"
       empcolor="#595959"
       empopacity="0.25098039" />
  </sodipodi:namedview>
  <metadata
     id="metadata7">
    <rdf:RDF>
      <cc:Work
         rdf:about="">
        <dc:format>image/svg+xml</dc:format>
        <dc:type
           rdf:resource="http://purl.org/dc/dcmitype/StillImage" />
      </cc:Work>
    </rdf:RDF>
  </metadata>
  <g
     inkscape:label="Layer 1"
     inkscape:groupmode="layer"
     id="layer1"
     transform="translate(-14,-200)">
    <g
       id="g4844"
       inkscape:export-filename="/home/qubodup/sign_yellow-80x100.png"
       inkscape:export-xdpi="90"
       inkscape:export-ydpi="90">
      <rect
         ry="4"
         rx="4"
         y="200"
         x="40"
         height="100"
         width="20"
         id="rect2641"
         style="opacity:1;fill:#360000;fill-opacity:1;stroke:none;stroke-width:0.25;stroke-linecap:round;stroke-linejoin:round;stroke-miterlimit:4;stroke-dasharray:none;stroke-opacity:1" />
      <rect
         style="opacity:1;fill:#7f301a;fill-opacity:1;stroke:none;stroke-width:0.25;stroke-linecap:round;stroke-linejoin:round;stroke-miterlimit:4;stroke-dasharray:none;stroke-opacity:1"
         id="rect4803"
         width="16"
         height="96"
         x="42"
         y="202"
         rx="4"
         ry="4" />
    </g>
    <path
       style="fill:#5e0702;fill-opacity:1;stroke:none;stroke-width:0.25;stroke-linecap:round;stroke-linejoin:round;stroke-miterlimit:4;stroke-opacity:1"
       d="M 17.9995,210 C 15.783777,210 14,211.784 14,214 L 14,246 C 14,248.216 15.783777,250 17.9995,250 L 73.995502,250 C 75.63271,250 77.271672,249.37967 78.526186,248.125 L 92.118238,234.53125 C 94.62725,232.02191 94.62725,227.97809 92.118238,225.46875 L 78.526186,211.875 C 77.271671,210.62033 75.632711,210 73.995502,210 L 17.9995,210 z"
       id="rect4815"
       sodipodi:nodetypes="ccccccccccc"
       inkscape:export-filename="/home/qubodup/sign_yellow-80x100.png"
       inkscape:export-xdpi="90"
       inkscape:export-ydpi="90" />
    <path
       style="fill:#c00f05;fill-opacity:1;stroke:none;stroke-width:0.25;stroke-linecap:round;stroke-linejoin:round;stroke-miterlimit:4;stroke-dasharray:none;stroke-opacity:1"
       d="M 20.000647,212 C 17.784288,212 16,213.784 16,216 L 16,244 C 16,246.216 17.784288,248 20.000647,248 L 72.009055,248 L 74.009379,248 C 75.03202,248 76.069989,247.59597 76.853588,246.8125 L 90.824597,232.84375 C 92.391799,231.2768 92.391802,228.72321 90.824597,227.15625 L 76.853588,213.1875 C 76.069988,212.40403 75.032021,212 74.009379,212 L 72.009055,212 L 20.000647,212 z"
       id="rect4828"
       inkscape:export-filename="/home/qubodup/sign_yellow-80x100.png"
       inkscape:export-xdpi="90"
       inkscape:export-ydpi="90" />
    <g
       id="g4978"
       inkscape:export-filename="/home/qubodup/sign_yellow-80x100.png"
       inkscape:export-xdpi="90"
       inkscape:export-ydpi="90">
      <path
         style="fill:#da9a03;fill-opacity:1;stroke:none;stroke-width:0.25;stroke-linecap:round;stroke-linejoin:round;stroke-miterlimit:4;stroke-opacity:1"
         d="M 97.999503,200 C 95.78378,200 94.000003,201.784 94.000003,204 L 94.000003,236 C 94.000003,238.216 95.78378,240 97.999503,240 L 153.9955,240 C 155.63271,240 157.27167,239.37967 158.52619,238.125 L 172.11824,224.53125 C 174.62725,222.02191 174.62725,217.97809 172.11824,215.46875 L 158.52619,201.875 C 157.27167,200.62033 155.63271,200 153.9955,200 L 97.999503,200 z"
         id="path4868"
         sodipodi:nodetypes="ccccccccccc" />
      <path
         style="fill:#fbd815;fill-opacity:1;stroke:none;stroke-width:0.25;stroke-linecap:round;stroke-linejoin:round;stroke-miterlimit:4;stroke-dasharray:none;stroke-opacity:1"
         d="M 100.00065,202 C 97.784291,202 96.000003,203.784 96.000003,206 L 96.000003,234 C 96.000003,236.216 97.784291,238 100.00065,238 L 152.00906,238 L 154.00938,238 C 155.03202,238 156.06999,237.59597 156.85359,236.8125 L 170.8246,222.84375 C 172.3918,221.2768 172.3918,218.72321 170.8246,217.15625 L 156.85359,203.1875 C 156.06999,202.40403 155.03202,202 154.00938,202 L 152.00906,202 L 100.00065,202 z"
         id="path4870" />
    </g>
    <g
       id="g4982">
      <path
         sodipodi:nodetypes="ccccccccccc"
         id="path4872"
         d="M 97.999503,240 C 95.78378,240 94.000003,241.784 94.000003,244 L 94.000003,276 C 94.000003,278.216 95.78378,280 97.999503,280 L 153.9955,280 C 155.63271,280 157.27167,279.37967 158.52619,278.125 L 172.11824,264.53125 C 174.62725,262.02191 174.62725,257.97809 172.11824,255.46875 L 158.52619,241.875 C 157.27167,240.62033 155.63271,240 153.9955,240 L 97.999503,240 z"
         style="fill:#1d5e02;fill-opacity:1;stroke:none;stroke-width:0.25;stroke-linecap:round;stroke-linejoin:round;stroke-miterlimit:4;stroke-opacity:1" />
      <path
         id="path4874"
         d="M 100.00065,242 C 97.784291,242 96.000003,243.784 96.000003,246 L 96.000003,274 C 96.000003,276.216 97.784291,278 100.00065,278 L 152.00906,278 L 154.00938,278 C 155.03202,278 156.06999,277.59597 156.85359,276.8125 L 170.8246,262.84375 C 172.3918,261.2768 172.3918,258.72321 170.8246,257.15625 L 156.85359,243.1875 C 156.06999,242.40403 155.03202,242 154.00938,242 L 152.00906,242 L 100.00065,242 z"
         style="fill:#0fe205;fill-opacity:1;stroke:none;stroke-width:0.25;stroke-linecap:round;stroke-linejoin:round;stroke-miterlimit:4;stroke-dasharray:none;stroke-opacity:1" />
    </g>
    <g
       id="g4986"
       transform="translate(-3.0000001e-6,0)">
      <path
         style="fill:#1f2d62;fill-opacity:1;stroke:none;stroke-width:0.25;stroke-linecap:round;stroke-linejoin:round;stroke-miterlimit:4;stroke-opacity:1"
         d="M 97.999503,280 C 95.78378,280 94.000003,281.784 94.000003,284 L 94.000003,316 C 94.000003,318.216 95.78378,320 97.999503,320 L 153.9955,320 C 155.63271,320 157.27167,319.37967 158.52619,318.125 L 172.11824,304.53125 C 174.62725,302.02191 174.62725,297.97809 172.11824,295.46875 L 158.52619,281.875 C 157.27167,280.62033 155.63271,280 153.9955,280 L 97.999503,280 z"
         id="path4876"
         sodipodi:nodetypes="ccccccccccc" />
      <path
         style="fill:#0f61f9;fill-opacity:1;stroke:none;stroke-width:0.25;stroke-linecap:round;stroke-linejoin:round;stroke-miterlimit:4;stroke-dasharray:none;stroke-opacity:1"
         d="M 100.00065,282 C 97.784291,282 96.000003,283.784 96.000003,286 L 96.000003,314 C 96.000003,316.216 97.784291,318 100.00065,318 L 152.00906,318 L 154.00938,318 C 155.03202,318 156.06999,317.59597 156.85359,316.8125 L 170.8246,302.84375 C 172.3918,301.2768 172.3918,298.72321 170.8246,297.15625 L 156.85359,283.1875 C 156.06999,282.40403 155.03202,282 154.00938,282 L 152.00906,282 L 100.00065,282 z"
         id="path4878" />
    </g>
    <g
       id="g4998">
      <path
         sodipodi:nodetypes="ccccccccccc"
         id="path4880"
         d="M 177.9995,200 C 175.78378,200 174,201.784 174,204 L 174,236 C 174,238.216 175.78378,240 177.9995,240 L 233.9955,240 C 235.63271,240 237.27167,239.37967 238.52619,238.125 L 252.11824,224.53125 C 254.62725,222.02191 254.62725,217.97809 252.11824,215.46875 L 238.52619,201.875 C 237.27167,200.62033 235.63271,200 233.9955,200 L 177.9995,200 z"
         style="fill:#5e024b;fill-opacity:1;stroke:none;stroke-width:0.25;stroke-linecap:round;stroke-linejoin:round;stroke-miterlimit:4;stroke-opacity:1" />
      <path
         id="path4882"
         d="M 180.00065,202 C 177.78429,202 176,203.784 176,206 L 176,234 C 176,236.216 177.78429,238 180.00065,238 L 232.00906,238 L 234.00938,238 C 235.03202,238 236.06999,237.59597 236.85359,236.8125 L 250.8246,222.84375 C 252.3918,221.2768 252.3918,218.72321 250.8246,217.15625 L 236.85359,203.1875 C 236.06999,202.40403 235.03202,202 234.00938,202 L 232.00906,202 L 180.00065,202 z"
         style="fill:#b705c0;fill-opacity:1;stroke:none;stroke-width:0.25;stroke-linecap:round;stroke-linejoin:round;stroke-miterlimit:4;stroke-dasharray:none;stroke-opacity:1" />
    </g>
    <g
       id="g4994">
      <path
         style="fill:#025b5e;fill-opacity:1;stroke:none;stroke-width:0.25;stroke-linecap:round;stroke-linejoin:round;stroke-miterlimit:4;stroke-opacity:1"
         d="M 177.9995,240 C 175.78378,240 174,241.784 174,244 L 174,276 C 174,278.216 175.78378,280 177.9995,280 L 233.9955,280 C 235.63271,280 237.27167,279.37967 238.52619,278.125 L 252.11824,264.53125 C 254.62725,262.02191 254.62725,257.97809 252.11824,255.46875 L 238.52619,241.875 C 237.27167,240.62033 235.63271,240 233.9955,240 L 177.9995,240 z"
         id="path4884"
         sodipodi:nodetypes="ccccccccccc" />
      <path
         style="fill:#05c0c0;fill-opacity:1;stroke:none;stroke-width:0.25;stroke-linecap:round;stroke-linejoin:round;stroke-miterlimit:4;stroke-dasharray:none;stroke-opacity:1"
         d="M 180.00065,242 C 177.78429,242 176,243.784 176,246 L 176,274 C 176,276.216 177.78429,278 180.00065,278 L 232.00906,278 L 234.00938,278 C 235.03202,278 236.06999,277.59597 236.85359,276.8125 L 250.8246,262.84375 C 252.3918,261.2768 252.3918,258.72321 250.8246,257.15625 L 236.85359,243.1875 C 236.06999,242.40403 235.03202,242 234.00938,242 L 232.00906,242 L 180.00065,242 z"
         id="path4886" />
    </g>
    <g
       id="g4990">
      <path
         sodipodi:nodetypes="ccccccccccc"
         id="path4888"
         d="M 177.9995,280 C 175.78378,280 174,281.784 174,284 L 174,316 C 174,318.216 175.78378,320 177.9995,320 L 233.9955,320 C 235.63271,320 237.27167,319.37967 238.52619,318.125 L 252.11824,304.53125 C 254.62725,302.02191 254.62725,297.97809 252.11824,295.46875 L 238.52619,281.875 C 237.27167,280.62033 235.63271,280 233.9955,280 L 177.9995,280 z"
         style="fill:#161616;fill-opacity:1;stroke:none;stroke-width:0.25;stroke-linecap:round;stroke-linejoin:round;stroke-miterlimit:4;stroke-opacity:1" />
      <path
         id="path4890"
         d="M 180.00065,282 C 177.78429,282 176,283.784 176,286 L 176,314 C 176,316.216 177.78429,318 180.00065,318 L 232.00906,318 L 234.00938,318 C 235.03202,318 236.06999,317.59597 236.85359,316.8125 L 250.8246,302.84375 C 252.3918,301.2768 252.3918,298.72321 250.8246,297.15625 L 236.85359,283.1875 C 236.06999,282.40403 235.03202,282 234.00938,282 L 232.00906,282 L 180.00065,282 z"
         style="fill:#252525;fill-opacity:1;stroke:none;stroke-width:0.25;stroke-linecap:round;stroke-linejoin:round;stroke-miterlimit:4;stroke-dasharray:none;stroke-opacity:1" />
    </g>
    <g
       id="g4957"
       style="fill:#ffffff;fill-opacity:0.15566038"
       inkscape:export-filename="/home/qubodup/sign_yellow-80x100.png"
       inkscape:export-xdpi="90"
       inkscape:export-ydpi="90">
      <rect
         style="fill:#ffffff;fill-opacity:0.15566038;stroke:none;stroke-width:0.25000000000000000;stroke-linecap:round;stroke-linejoin:round;stroke-miterlimit:4;stroke-dasharray:none;stroke-opacity:1"
         id="rect4892"
         width="10"
         height="2"
         x="72"
         y="222"
         rx="0.5"
         ry="0.5" />
      <rect
         ry="0.5"
         rx="0.5"
         y="214"
         x="26"
         height="2"
         width="14"
         id="rect4894"
         style="fill:#ffffff;fill-opacity:0.15566038;stroke:none;stroke-width:0.25000000000000000;stroke-linecap:round;stroke-linejoin:round;stroke-miterlimit:4;stroke-dasharray:none;stroke-opacity:1" />
      <rect
         style="fill:#ffffff;fill-opacity:0.15566038;stroke:none;stroke-width:0.25000000000000000;stroke-linecap:round;stroke-linejoin:round;stroke-miterlimit:4;stroke-dasharray:none;stroke-opacity:1"
         id="rect4896"
         width="6"
         height="2"
         x="50"
         y="214"
         rx="0.5"
         ry="0.5" />
      <rect
         ry="0.5"
         rx="0.5"
         y="230"
         x="64"
         height="2"
         width="20"
         id="rect4898"
         style="fill:#ffffff;fill-opacity:0.15566038;stroke:none;stroke-width:0.25000000000000000;stroke-linecap:round;stroke-linejoin:round;stroke-miterlimit:4;stroke-dasharray:none;stroke-opacity:1" />
      <rect
         ry="0.5"
         rx="0.5"
         y="222"
         x="22"
         height="2"
         width="14"
         id="rect4900"
         style="fill:#ffffff;fill-opacity:0.15566038;stroke:none;stroke-width:0.25000000000000000;stroke-linecap:round;stroke-linejoin:round;stroke-miterlimit:4;stroke-dasharray:none;stroke-opacity:1" />
      <rect
         ry="0.5"
         rx="0.5"
         y="222"
         x="40"
         height="2"
         width="4"
         id="rect4902"
         style="fill:#ffffff;fill-opacity:0.15566038;stroke:none;stroke-width:0.25000000000000000;stroke-linecap:round;stroke-linejoin:round;stroke-miterlimit:4;stroke-dasharray:none;stroke-opacity:1" />
      <rect
         style="fill:#ffffff;fill-opacity:0.15566038;stroke:none;stroke-width:0.25000000000000000;stroke-linecap:round;stroke-linejoin:round;stroke-miterlimit:4;stroke-dasharray:none;stroke-opacity:1"
         id="rect4904"
         width="10"
         height="2"
         x="54"
         y="222"
         rx="0.5"
         ry="0.5" />
      <rect
         style="fill:#ffffff;fill-opacity:0.15566038;stroke:none;stroke-width:0.25000000000000000;stroke-linecap:round;stroke-linejoin:round;stroke-miterlimit:4;stroke-dasharray:none;stroke-opacity:1"
         id="rect4906"
         width="16"
         height="2"
         x="26"
         y="230"
         rx="0.5"
         ry="0.5" />
      <rect
         style="fill:#ffffff;fill-opacity:0.15566038;stroke:none;stroke-width:0.25000000000000000;stroke-linecap:round;stroke-linejoin:round;stroke-miterlimit:4;stroke-dasharray:none;stroke-opacity:1"
         id="rect4908"
         width="14"
         height="2"
         x="18"
         y="238"
         rx="0.5"
         ry="0.5" />
      <rect
         ry="0.5"
         rx="0.5"
         y="230"
         x="50"
         height="2"
         width="6"
         id="rect4910"
         style="fill:#ffffff;fill-opacity:0.15566038;stroke:none;stroke-width:0.25000000000000000;stroke-linecap:round;stroke-linejoin:round;stroke-miterlimit:4;stroke-dasharray:none;stroke-opacity:1" />
      <rect
         style="fill:#ffffff;fill-opacity:0.15566038;stroke:none;stroke-width:0.25000000000000000;stroke-linecap:round;stroke-linejoin:round;stroke-miterlimit:4;stroke-dasharray:none;stroke-opacity:1"
         id="rect4912"
         width="2"
         height="2"
         x="46"
         y="222"
         rx="0.5"
         ry="0.5" />
      <rect
         ry="0.5"
         rx="0.5"
         y="238"
         x="38"
         height="2"
         width="10"
         id="rect4914"
         style="fill:#ffffff;fill-opacity:0.15566038;stroke:none;stroke-width:0.25000000000000000;stroke-linecap:round;stroke-linejoin:round;stroke-miterlimit:4;stroke-dasharray:none;stroke-opacity:1" />
      <rect
         style="fill:#ffffff;fill-opacity:0.15566038;stroke:none;stroke-width:0.25000000000000000;stroke-linecap:round;stroke-linejoin:round;stroke-miterlimit:4;stroke-dasharray:none;stroke-opacity:1"
         id="rect4916"
         width="2"
         height="2"
         x="54"
         y="244"
         rx="0.5"
         ry="0.5" />
      <rect
         ry="0.5"
         rx="0.5"
         y="244"
         x="36"
         height="2"
         width="10"
         id="rect4945"
         style="fill:#ffffff;fill-opacity:0.15566038;stroke:none;stroke-width:0.25000000000000000;stroke-linecap:round;stroke-linejoin:round;stroke-miterlimit:4;stroke-dasharray:none;stroke-opacity:1" />
      <rect
         style="fill:#ffffff;fill-opacity:0.15566038;stroke:none;stroke-width:0.25000000000000000;stroke-linecap:round;stroke-linejoin:round;stroke-miterlimit:4;stroke-dasharray:none;stroke-opacity:1"
         id="rect4947"
         width="6"
         height="2"
         x="58"
         y="238"
         rx="0.5"
         ry="0.5" />
      <rect
         ry="0.5"
         rx="0.5"
         y="238"
         x="70"
         height="2"
         width="8"
         id="rect4949"
         style="fill:#ffffff;fill-opacity:0.15566038;stroke:none;stroke-width:0.25000000000000000;stroke-linecap:round;stroke-linejoin:round;stroke-miterlimit:4;stroke-dasharray:none;stroke-opacity:1" />
      <rect
         ry="0.5"
         rx="0.5"
         y="230"
         x="88"
         height="2"
         width="2"
         id="rect4951"
         style="fill:#ffffff;fill-opacity:0.15566038;stroke:none;stroke-width:0.25000000000000000;stroke-linecap:round;stroke-linejoin:round;stroke-miterlimit:4;stroke-dasharray:none;stroke-opacity:1" />
      <rect
         style="fill:#ffffff;fill-opacity:0.15566038;stroke:none;stroke-width:0.25000000000000000;stroke-linecap:round;stroke-linejoin:round;stroke-miterlimit:4;stroke-dasharray:none;stroke-opacity:1"
         id="rect4953"
         width="4"
         height="2"
         x="64"
         y="214"
         rx="0.5"
         ry="0.5" />
      <rect
         ry="0.5"
         rx="0.5"
         y="244"
         x="62"
         height="2"
         width="4"
         id="rect4955"
         style="fill:#ffffff;fill-opacity:0.15566038;stroke:none;stroke-width:0.25000000000000000;stroke-linecap:round;stroke-linejoin:round;stroke-miterlimit:4;stroke-dasharray:none;stroke-opacity:1" />
    </g>
  </g>
</svg>
